<?xml version="1.0" standalone="no"?>
<!DOCTYPE svg PUBLIC "-//W3C//DTD SVG 20010904//EN"
 "http://www.w3.org/TR/2001/REC-SVG-20010904/DTD/svg10.dtd">
<svg version="1.0" xmlns="http://www.w3.org/2000/svg"
 width="500.000000pt" height="500.000000pt" viewBox="0 0 500.000000 500.000000"
 preserveAspectRatio="xMidYMid meet">
<metadata>
Created by potrace 1.11, written by Peter Selinger 2001-2013
</metadata>
<g transform="translate(0.000000,500.000000) scale(0.100000,-0.100000)"
fill="#000000" stroke="none">
<path d="M0 4544 l0 -455 32 23 c18 12 110 84 206 160 95 76 220 168 278 205
277 178 385 250 560 373 104 74 193 137 199 142 5 4 -280 8 -633 8 l-642 0 0
-456z"/>
<path d="M1405 4926 c-241 -175 -555 -391 -721 -495 -106 -66 -259 -176 -374
-267 -107 -85 -221 -172 -252 -192 l-58 -37 3 -603 2 -603 230 -123 c127 -67
295 -159 374 -204 79 -45 147 -82 151 -82 15 0 100 100 100 117 0 43 -109 442
-181 663 -14 44 -22 101 -26 175 -4 99 -2 113 17 143 34 55 86 72 220 72 201
0 327 -29 485 -114 l85 -45 64 107 c164 274 223 396 591 1220 l153 342 -381 0
-382 -1 -100 -73z"/>
<path d="M2486 4951 c-54 -73 -94 -166 -125 -292 -39 -155 -51 -263 -51 -472
l0 -177 123 109 c495 440 774 662 1029 819 l102 62 -521 0 -521 0 -36 -49z"/>
<path d="M3705 4929 c-141 -77 -371 -225 -499 -321 -103 -78 -694 -587 -809
-698 l-89 -85 5 -305 c3 -243 8 -337 26 -460 12 -85 23 -155 24 -157 7 -6 564
67 1037 137 294 43 558 82 587 86 l52 6 62 112 c76 135 218 350 290 437 111
134 267 274 512 459 l97 74 0 393 0 393 -582 0 -583 -1 -130 -70z"/>
<path d="M2130 4373 c-281 -624 -319 -702 -469 -957 -44 -76 -81 -142 -81
-146 0 -3 18 -16 40 -29 l39 -22 17 28 c131 209 237 350 373 496 42 45 86 94
99 109 23 26 24 31 32 330 4 166 7 304 5 306 -1 1 -26 -51 -55 -115z"/>
<path d="M4870 3952 c-69 -53 -186 -158 -260 -232 -111 -110 -154 -162 -237
-285 -98 -147 -163 -254 -163 -269 0 -5 15 -5 33 -2 19 3 189 24 378 46 189
21 352 42 362 45 16 7 17 36 17 401 0 217 -1 394 -2 394 -2 -1 -59 -44 -128
-98z"/>
<path d="M2085 3589 c-98 -112 -193 -240 -262 -353 l-53 -86 78 -52 c42 -28
132 -91 199 -140 119 -86 167 -106 179 -75 3 8 -4 81 -15 163 -23 177 -41 389
-44 532 l-2 103 -80 -92z"/>
<path d="M783 3344 c-15 -41 8 -175 60 -339 29 -93 69 -227 88 -297 19 -71 36
-128 39 -128 3 0 19 21 36 48 18 26 111 168 209 317 203 310 198 270 45 342
-111 53 -212 73 -368 73 -84 0 -104 -3 -109 -16z"/>
<path d="M1329 2883 c-95 -147 -207 -314 -246 -371 -40 -57 -73 -114 -73 -125
0 -36 12 -67 24 -67 6 0 50 39 96 86 47 47 117 110 155 139 68 50 72 56 105
141 19 49 71 163 117 253 46 89 83 164 83 166 0 6 -67 45 -77 45 -5 0 -88
-120 -184 -267z"/>
<path d="M4988 3125 c-3 -3 -142 -21 -309 -40 -167 -19 -359 -42 -425 -51
l-122 -17 -16 -35 c-23 -47 -91 -368 -122 -567 -20 -137 -24 -197 -24 -412 l0
-252 43 -11 c151 -37 583 -232 905 -407 l82 -45 0 921 c0 507 -1 921 -3 921
-2 0 -6 -2 -9 -5z"/>
<path d="M1647 2928 c-56 -104 -117 -233 -117 -248 0 -4 55 12 123 35 67 23
173 57 235 76 61 18 112 36 112 39 0 6 -261 187 -283 195 -11 5 -29 -19 -70
-97z"/>
<path d="M3405 2910 c-286 -43 -627 -91 -757 -106 -131 -15 -243 -31 -250 -35
-9 -6 -9 -18 -2 -45 8 -34 41 -64 316 -289 168 -137 369 -307 446 -377 77 -70
151 -132 165 -137 24 -9 488 -131 499 -131 3 0 8 107 11 238 4 183 11 274 31
397 24 157 74 409 101 513 l13 52 -26 -1 c-15 0 -261 -36 -547 -79z"/>
<path d="M1970 2680 c-154 -44 -371 -117 -452 -153 l-55 -25 -17 -68 c-9 -38
-17 -87 -19 -109 l-2 -39 60 -9 c33 -4 253 -39 488 -78 236 -39 431 -68 434
-66 2 3 -18 85 -46 183 -28 99 -56 205 -62 238 -11 55 -16 62 -78 112 -43 36
-73 54 -90 53 -15 -1 -87 -18 -161 -39z"/>
<path d="M0 2498 l1 -83 330 -275 c182 -151 344 -283 359 -293 l29 -18 34 73
c19 41 51 100 71 132 21 32 35 63 33 70 -7 17 -829 476 -853 476 -2 0 -4 -37
-4 -82z"/>
<path d="M2455 2458 c2 -7 27 -92 55 -188 29 -96 53 -176 54 -177 4 -5 459
-103 462 -100 8 7 -92 95 -321 281 -132 108 -243 196 -247 196 -4 0 -6 -6 -3
-12z"/>
<path d="M1255 2350 l-39 -40 36 0 c33 0 36 3 43 36 3 20 5 38 2 40 -2 2 -21
-14 -42 -36z"/>
<path d="M0 2043 l0 -198 78 0 c66 0 84 -4 128 -28 62 -35 239 -190 317 -280
32 -37 63 -67 67 -67 5 0 12 17 16 38 4 20 18 68 31 106 12 38 23 75 23 81 0
6 -22 27 -50 48 -27 20 -173 141 -324 267 -152 127 -278 230 -281 230 -3 0 -5
-89 -5 -197z"/>
<path d="M1093 2179 c-27 -27 -12 -45 70 -91 56 -32 84 -43 89 -35 7 14 14
115 7 121 -2 2 -38 7 -79 10 -55 5 -78 4 -87 -5z"/>
<path d="M1395 2138 c-3 -13 -5 -59 -3 -102 l3 -79 275 -154 c151 -85 376
-211 500 -280 124 -69 292 -164 373 -210 82 -47 150 -83 151 -81 2 1 -32 113
-75 248 -44 135 -95 299 -115 365 -20 66 -42 125 -48 132 -10 10 -604 114
-901 158 -60 9 -120 18 -132 21 -17 3 -24 -1 -28 -18z"/>
<path d="M928 1953 c-26 -43 -60 -107 -75 -141 l-27 -64 24 -19 c74 -56 392
-270 396 -266 3 3 -51 120 -120 260 -69 140 -126 259 -126 264 0 5 -6 17 -13
27 -11 15 -18 8 -59 -61z"/>
<path d="M2610 1943 c0 -4 54 -176 120 -383 65 -206 122 -388 126 -403 4 -19
25 -40 68 -69 278 -188 985 -682 1117 -782 90 -68 165 -123 167 -121 2 2 -7
20 -21 42 -45 73 -145 268 -195 383 -75 172 -122 344 -137 500 -12 127 -13
130 -83 203 -55 57 -446 419 -517 478 -12 10 -142 44 -320 84 -165 36 -306 68
-312 70 -7 3 -13 1 -13 -2z"/>
<path d="M1178 1913 c60 -135 72 -149 72 -81 0 54 -1 57 -36 77 -43 25 -45 26
-36 4z"/>
<path d="M1387 1657 l-6 -152 41 -87 c23 -48 49 -95 60 -104 10 -9 210 -136
445 -281 339 -208 485 -292 701 -400 150 -75 275 -134 278 -131 7 8 -143 517
-158 535 -16 20 -137 90 -772 445 -314 176 -574 322 -577 324 -3 2 -9 -65 -12
-149z"/>
<path d="M3526 1722 c5 -4 63 -57 129 -117 66 -60 133 -120 148 -134 l28 -25
-3 103 -3 104 -145 38 c-153 41 -170 44 -154 31z"/>
<path d="M60 1550 l0 -171 49 -122 c140 -349 383 -850 488 -1007 l23 -35 -6
65 c-3 36 -19 171 -36 300 -28 222 -30 249 -25 475 l6 239 -56 68 c-83 101
-306 313 -356 337 -24 12 -53 21 -65 21 -22 0 -22 -2 -22 -170z"/>
<path d="M751 1548 c-11 -40 -28 -107 -36 -148 l-14 -75 78 -115 c112 -164
310 -494 432 -715 57 -104 147 -257 200 -340 93 -145 97 -150 132 -153 21 -2
37 -1 37 1 0 3 -15 38 -34 78 -148 326 -275 809 -293 1111 l-6 108 -166 112
c-91 62 -196 134 -234 160 -37 26 -69 48 -71 48 -2 0 -13 -33 -25 -72z"/>
<path d="M3960 1558 c0 -30 3 -103 7 -163 l6 -108 196 -206 c107 -113 234
-247 281 -297 100 -106 208 -256 379 -524 68 -107 125 -196 126 -198 2 -2 13
1 24 8 21 11 21 14 21 543 l0 532 -193 100 c-372 193 -715 346 -806 361 l-41
7 0 -55z"/>
<path d="M1385 1155 c38 -345 170 -806 311 -1087 l34 -68 388 0 387 1 -35 27
c-140 109 -465 417 -642 608 -155 168 -264 305 -369 462 -39 59 -73 109 -76
112 -3 3 -2 -22 2 -55z"/>
<path d="M0 588 l0 -588 300 0 c165 0 300 2 300 5 0 3 -26 45 -59 93 -145 217
-327 575 -515 1017 l-25 60 -1 -587z"/>
<path d="M680 967 c0 -99 8 -211 25 -343 14 -108 32 -264 40 -347 9 -90 23
-175 35 -213 l22 -64 274 0 c151 0 274 2 274 5 0 3 -35 60 -78 127 -43 68
-123 204 -177 303 -108 199 -367 629 -396 660 -19 19 -19 17 -19 -128z"/>
<path d="M3995 1034 c27 -154 77 -297 178 -504 110 -226 232 -415 324 -503
l30 -28 155 3 156 3 -117 183 c-203 319 -276 414 -504 654 -116 123 -215 225
-220 227 -4 2 -5 -14 -2 -35z"/>
<path d="M1682 1008 c71 -101 199 -241 427 -469 268 -267 398 -382 543 -480
l87 -59 162 0 c147 0 161 2 155 17 -4 9 -25 81 -48 160 l-41 143 -331 164
c-263 131 -396 205 -649 360 -175 108 -320 196 -323 196 -3 0 5 -15 18 -32z"/>
<path d="M2930 914 c0 -7 91 -321 123 -424 l23 -74 179 -81 c208 -94 427 -188
641 -275 150 -60 152 -61 239 -58 l88 3 -204 155 c-176 134 -1069 760 -1084
760 -3 0 -5 -3 -5 -6z"/>
<path d="M3159 125 l36 -125 250 0 250 0 -170 74 c-93 40 -221 96 -284 125
-63 28 -115 51 -117 51 -1 0 15 -56 35 -125z"/>
</g>
</svg>
